HIERARCHY
ROOT Hips
{
  OFFSET 5.72205e-005 65.662 3.42586
  CHANNELS 6 Xposition Yposition Zposition Zrotation Xrotation Yrotation
  JOINT Chest
  {
    OFFSET 0 8.7983 -4.7612
    CHANNELS 6 Xposition Yposition Zposition Zrotation Xrotation Yrotation
    JOINT Chest2
    {
      OFFSET 0 8.0291 0.4195
      CHANNELS 6 Xposition Yposition Zposition Zrotation Xrotation Yrotation
      JOINT Chest3
      {
        OFFSET 0 9.9351 -2.2114
        CHANNELS 6 Xposition Yposition Zposition Zrotation Xrotation Yrotation
        JOINT Neck
        {
          OFFSET 0 22.3885 -0.4656
          CHANNELS 6 Xposition Yposition Zposition Zrotation Xrotation Yrotation
          JOINT Head
          {
            OFFSET -0.0001 12.643 3.4389
            CHANNELS 6 Xposition Yposition Zposition Zrotation Xrotation Yrotation
            End Site
            {
              OFFSET 0.0001 17.6655 0.5274
            }
          }
        }
        JOINT LeftCollar
        {
          OFFSET 2.2603 21.606 7.4023
          CHANNELS 6 Xposition Yposition Zposition Zrotation Xrotation Yrotation
          JOINT LeftShoulder
          {
            OFFSET 13.5163 -1.1332 -5.0146
            CHANNELS 6 Xposition Yposition Zposition Zrotation Xrotation Yrotation
            JOINT LeftElbow
            {
              OFFSET -0.0995 -28.05 -0.2431
              CHANNELS 6 Xposition Yposition Zposition Zrotation Xrotation Yrotation
              JOINT LeftWrist
              {
                OFFSET 0.0679 -23.3996 -0.1402
                CHANNELS 6 Xposition Yposition Zposition Zrotation Xrotation Yrotation
                JOINT LeftFinger1
                {
                  OFFSET 0.7932 -9.069 2.5189
                  CHANNELS 6 Xposition Yposition Zposition Zrotation Xrotation Yrotation
                  JOINT LeftFinger11
                  {
                    OFFSET -0.8272 -3.3923 0.5977
                    CHANNELS 6 Xposition Yposition Zposition Zrotation Xrotation Yrotation
                    JOINT LeftFinger12
                    {
                      OFFSET -0.5649 -2.3158 0.4082
                      CHANNELS 6 Xposition Yposition Zposition Zrotation Xrotation Yrotation
                      End Site
                      {
                        OFFSET -0.4919 -1.6479 0.2673
                      }
                    }
                  }
                }
                JOINT LeftFinger2
                {
                  OFFSET 0.9159 -9.2044 0.2193
                  CHANNELS 6 Xposition Yposition Zposition Zrotation Xrotation Yrotation
                  JOINT LeftFinger21
                  {
                    OFFSET 0.0117 -4.1944 -0.0248
                    CHANNELS 6 Xposition Yposition Zposition Zrotation Xrotation Yrotation
                    JOINT LeftFinger22
                    {
                      OFFSET 0.0071 -2.3249 -0.0142
                      CHANNELS 6 Xposition Yposition Zposition Zrotation Xrotation Yrotation
                      End Site
                      {
                        OFFSET -0.1475 -2.0882 0.0028
                      }
                    }
                  }
                }
                JOINT LeftFinger3
                {
                  OFFSET 0.6113 -8.7231 -2.0637
                  CHANNELS 6 Xposition Yposition Zposition Zrotation Xrotation Yrotation
                  JOINT LeftFinger31
                  {
                    OFFSET -0.1927 -3.8059 -0.2383
                    CHANNELS 6 Xposition Yposition Zposition Zrotation Xrotation Yrotation
                    JOINT LeftFinger32
                    {
                      OFFSET -0.1091 -2.1688 -0.1362
                      CHANNELS 6 Xposition Yposition Zposition Zrotation Xrotation Yrotation
                      End Site
                      {
                        OFFSET -0.2358 -1.9176 -0.0906
                      }
                    }
                  }
                }
                JOINT LeftFinger4
                {
                  OFFSET -0.6151 -8.0947 -3.5641
                  CHANNELS 6 Xposition Yposition Zposition Zrotation Xrotation Yrotation
                  JOINT LeftFinger41
                  {
                    OFFSET -0.4882 -2.341 -0.6462
                    CHANNELS 6 Xposition Yposition Zposition Zrotation Xrotation Yrotation
                    JOINT LeftFinger42
                    {
                      OFFSET -0.3575 -1.7167 -0.4742
                      CHANNELS 6 Xposition Yposition Zposition Zrotation Xrotation Yrotation
                      End Site
                      {
                        OFFSET -0.4187 -1.5237 -0.3496
                      }
                    }
                  }
                }
                JOINT LeftFinger0
                {
                  OFFSET -1.42 -1.8761 1.4223
                  CHANNELS 6 Xposition Yposition Zposition Zrotation Xrotation Yrotation
                  JOINT LeftFinger01
                  {
                    OFFSET -1.1471 -3.4929 2.6334
                    CHANNELS 6 Xposition Yposition Zposition Zrotation Xrotation Yrotation
                    JOINT LeftFinger02
                    {
                      OFFSET -0.823 -2.3 1.6571
                      CHANNELS 6 Xposition Yposition Zposition Zrotation Xrotation Yrotation
                      End Site
                      {
                        OFFSET -0.5822 -1.6914 1.1582
                      }
                    }
                  }
                }
              }
            }
          }
        }
        JOINT RightCollar
        {
          OFFSET -2.2603 21.606 7.4023
          CHANNELS 6 Xposition Yposition Zposition Zrotation Xrotation Yrotation
          JOINT RightShoulder
          {
            OFFSET -13.5187 -1.1334 -5.0155
            CHANNELS 6 Xposition Yposition Zposition Zrotation Xrotation Yrotation
            JOINT RightElbow
            {
              OFFSET 0.0994 -28.0499 -0.2431
              CHANNELS 6 Xposition Yposition Zposition Zrotation Xrotation Yrotation
              JOINT RightWrist
              {
                OFFSET -0.0679 -23.3996 -0.1402
                CHANNELS 6 Xposition Yposition Zposition Zrotation Xrotation Yrotation
                JOINT RightFinger1
                {
                  OFFSET -0.7932 -9.0691 2.5189
                  CHANNELS 6 Xposition Yposition Zposition Zrotation Xrotation Yrotation
                  JOINT RightFinger11
                  {
                    OFFSET 0.8272 -3.3923 0.5977
                    CHANNELS 6 Xposition Yposition Zposition Zrotation Xrotation Yrotation
                    JOINT RightFinger12
                    {
                      OFFSET 0.565 -2.3158 0.4082
                      CHANNELS 6 Xposition Yposition Zposition Zrotation Xrotation Yrotation
                      End Site
                      {
                        OFFSET 0.4919 -1.6479 0.2673
                      }
                    }
                  }
                }
                JOINT RightFinger2
                {
                  OFFSET -0.916 -9.2044 0.2193
                  CHANNELS 6 Xposition Yposition Zposition Zrotation Xrotation Yrotation
                  JOINT RightFinger21
                  {
                    OFFSET -0.0117 -4.1944 -0.0248
                    CHANNELS 6 Xposition Yposition Zposition Zrotation Xrotation Yrotation
                    JOINT RightFinger22
                    {
                      OFFSET -0.0071 -2.3249 -0.0142
                      CHANNELS 6 Xposition Yposition Zposition Zrotation Xrotation Yrotation
                      End Site
                      {
                        OFFSET 0.1475 -2.0882 0.0028
                      }
                    }
                  }
                }
                JOINT RightFinger3
                {
                  OFFSET -0.6113 -8.7231 -2.0637
                  CHANNELS 6 Xposition Yposition Zposition Zrotation Xrotation Yrotation
                  JOINT RightFinger31
                  {
                    OFFSET 0.1927 -3.8059 -0.2383
                    CHANNELS 6 Xposition Yposition Zposition Zrotation Xrotation Yrotation
                    JOINT RightFinger32
                    {
                      OFFSET 0.1091 -2.1688 -0.1362
                      CHANNELS 6 Xposition Yposition Zposition Zrotation Xrotation Yrotation
                      End Site
                      {
                        OFFSET 0.2358 -1.9176 -0.0906
                      }
                    }
                  }
                }
                JOINT RightFinger4
                {
                  OFFSET 0.6151 -8.0947 -3.564
                  CHANNELS 6 Xposition Yposition Zposition Zrotation Xrotation Yrotation
                  JOINT RightFinger41
                  {
                    OFFSET 0.4882 -2.341 -0.6462
                    CHANNELS 6 Xposition Yposition Zposition Zrotation Xrotation Yrotation
                    JOINT RightFinger42
                    {
                      OFFSET 0.3574 -1.7166 -0.4742
                      CHANNELS 6 Xposition Yposition Zposition Zrotation Xrotation Yrotation
                      End Site
                      {
                        OFFSET 0.4187 -1.5237 -0.3496
                      }
                    }
                  }
                }
                JOINT RightFinger0
                {
                  OFFSET 1.4199 -1.8761 1.4221
                  CHANNELS 6 Xposition Yposition Zposition Zrotation Xrotation Yrotation
                  JOINT RightFinger01
                  {
                    OFFSET 1.1472 -3.4929 2.6336
                    CHANNELS 6 Xposition Yposition Zposition Zrotation Xrotation Yrotation
                    JOINT RightFinger02
                    {
                      OFFSET 0.8229 -2.3 1.6571
                      CHANNELS 6 Xposition Yposition Zposition Zrotation Xrotation Yrotation
                      End Site
                      {
                        OFFSET 0.5822 -1.6914 1.1582
                      }
                    }
                  }
                }
              }
            }
          }
        }
      }
    }
  }
  JOINT RightHip
  {
    OFFSET -9.412 3.9771 -0.7758
    CHANNELS 6 Xposition Yposition Zposition Zrotation Xrotation Yrotation
    JOINT RightKnee
    {
      OFFSET -0.7531 -40.938 0
      CHANNELS 6 Xposition Yposition Zposition Zrotation Xrotation Yrotation
      JOINT RightAnkle
      {
        OFFSET 0 -40.1986 0
        CHANNELS 6 Xposition Yposition Zposition Zrotation Xrotation Yrotation
        JOINT RightToe
        {
          OFFSET 0 -4.4182 9.239
          CHANNELS 6 Xposition Yposition Zposition Zrotation Xrotation Yrotation
          End Site
          {
            OFFSET 0 0 6.1981
          }
        }
      }
    }
  }
  JOINT LeftHip
  {
    OFFSET 9.4119 3.9773 -0.7758
    CHANNELS 6 Xposition Yposition Zposition Zrotation Xrotation Yrotation
    JOINT LeftKnee
    {
      OFFSET 0.7532 -40.9383 0
      CHANNELS 6 Xposition Yposition Zposition Zrotation Xrotation Yrotation
      JOINT LeftAnkle
      {
        OFFSET 0 -40.1986 0
        CHANNELS 6 Xposition Yposition Zposition Zrotation Xrotation Yrotation
        JOINT LeftToe
        {
          OFFSET 0 -4.4182 9.239
          CHANNELS 6 Xposition Yposition Zposition Zrotation Xrotation Yrotation
          End Site
          {
            OFFSET 0 0 6.1981
          }
        }
      }
    }
  }
}
MOTION
Frames:	4
Frame Time:	0.0333333
-54.0713 15.1762 20.668 -42.0002 -0.000282455 96.995 0 8.7983 -4.7612 -0.56468 8.48882 -0.286749 -3.55271e-015 8.0291 0.4195 -1.10436 16.9801 -0.49611 0 9.9351 -2.2114 -1.10438 16.9801 -0.496102 1.77636e-015 22.3885 -0.4656 -16.7602 -43.8497 13.2146 -0.0001 12.643 3.4389 6.97936e-006 9.01979 -1.04642e-005 2.2603 21.606 7.4023 -8.42848 -4.96783 16.8856 13.5163 -1.1332 -5.0146 -5.62126 -59.4052 17.5116 -0.0995 -28.05 -0.2431 -92.3594 -57.6131 -42.9717 0.0679 -23.3996 -0.1402 -21.8414 10.5202 44.3589 0.7932 -9.069 2.5189 7.95139e-016 1.59028e-015 -1.59028e-015 -0.8272 -3.3923 0.5977 1.19271e-015 4.77083e-015 -7.95139e-016 -0.5649 -2.3158 0.4082 1.39149e-015 6.36111e-015 -7.95139e-016 0.9159 -9.2044 0.2193 7.95139e-016 1.59028e-015 -1.59028e-015 0.0117 -4.1944 -0.0248 -0.0128269 0.00232273 8.53344e-005 0.0071 -2.3249 -0.0142 9.93923e-016 -3.18055e-015 1.59028e-015 0.6113 -8.7231 -2.0637 7.95139e-016 1.59028e-015 -1.59028e-015 -0.1927 -3.8059 -0.2383 -0.0160622 0.00299314 0.000856215 -0.1091 -2.1688 -0.1362 4.17448e-015 1.59028e-015 7.95139e-016 -0.6151 -8.0947 -3.5641 7.95139e-016 1.59028e-015 -1.59028e-015 -0.4882 -2.341 -0.6462 -0.0126032 0.00311813 0.00282831 -0.3575 -1.7167 -0.4742 -3.37934e-015 2.38542e-014 -1.59028e-015 -1.42 -1.8761 1.4223 7.95139e-016 1.59028e-015 -1.59028e-015 -1.1471 -3.4929 2.6334 1.19271e-015 4.77083e-015 -7.95139e-016 -0.823 -2.3 1.6571 1.39149e-015 6.36111e-015 -7.95139e-016 -2.2603 21.606 7.4023 -37.7806 -1.60833 11.5409 -13.5187 -1.1334 -5.0155 -129.635 -58.5455 -50.4773 0.0994 -28.0499 -0.2431 -2.11276 -33.3807 -111.863 -0.0679 -23.3996 -0.1402 -26.2238 0.723138 4.03454 -0.7932 -9.0691 2.5189 1.59028e-015 -7.55382e-015 3.18055e-015 0.8272 -3.3923 0.5977 1.59028e-015 -7.95139e-015 3.18055e-015 0.565 -2.3158 0.4082 1.59028e-015 -1.98785e-015 3.18055e-015 -0.916 -9.2044 0.2193 1.59028e-015 -7.55382e-015 3.18055e-015 -0.0117 -4.1944 -0.0248 0.0129564 0.00232573 -8.52216e-005 -0.0071 -2.3249 -0.0142 -0 -3.97569e-015 -0 -0.6113 -8.7231 -2.0637 1.59028e-015 -7.55382e-015 3.18055e-015 0.1927 -3.8059 -0.2383 0.0163135 0.00303422 -0.000881383 0.1091 -2.1688 -0.1362 -1.59028e-015 3.97569e-015 -0 0.6151 -8.0947 -3.564 1.59028e-015 -7.55382e-015 3.18055e-015 0.4882 -2.341 -0.6462 0.0145551 0.00367158 -0.00326374 0.3574 -1.7166 -0.4742 2.20695e-031 -3.97569e-015 3.18055e-015 1.4199 -1.8761 1.4221 1.59028e-015 -7.55382e-015 3.18055e-015 1.1472 -3.4929 2.6336 1.59028e-015 -7.95139e-015 3.18055e-015 0.8229 -2.3 1.6571 1.59028e-015 -1.98785e-015 3.18055e-015 -9.412 3.9771 -0.7758 -21.3848 -84.527 -30.4529 -0.7531 -40.938 -3.55271e-015 -175.669 32.5039 172.155 3.55271e-015 -40.1986 1.77636e-015 7.71196 46.7685 -14.6505 -3.55271e-015 -4.4182 9.239 -2.25077e-006 3.65037e-006 1.20997e-006 9.4119 3.9773 -0.7758 11.5579 -79.404 22.6912 0.7532 -40.9383 0 175.829 34.0251 -172.879 -8.88179e-016 -40.1986 0 13.5261 43.3196 10.5622 0 -4.4182 9.239 8.74736e-007 -1.0416e-006 2.92274e-007 
-54.0713 15.1762 20.668 -42.0002 -0.000282455 96.995 0 8.7983 -4.7612 -0.563462 8.41807 -0.282869 -1.77636e-015 8.0291 0.4195 -1.10254 16.8383 -0.489041 -1.77636e-015 9.9351 -2.2114 -1.10253 16.8385 -0.489054 0 22.3885 -0.4656 -16.6021 -43.2957 13.4438 -0.0001 12.643 3.4389 -1.03522e-005 9.37541 3.02784e-005 2.2603 21.606 7.4023 -8.36796 -4.9149 16.5943 13.5163 -1.1332 -5.0146 -5.62127 -59.4052 17.5116 -0.0995 -28.05 -0.2431 -91.2542 -57.8214 -41.9998 0.0679 -23.3996 -0.1402 -22.0749 10.5152 44.1181 0.7932 -9.069 2.5189 -2.99569e-007 -1.70612e-006 1.67099e-006 -0.8272 -3.3923 0.5977 -2.5842e-015 1.59028e-015 7.95139e-016 -0.5649 -2.3158 0.4082 -7.48921e-008 -1.45893e-008 4.17748e-007 0.9159 -9.2044 0.2193 -2.99569e-007 -1.70612e-006 1.67099e-006 0.0117 -4.1944 -0.0248 -0.0128195 0.00232691 8.31593e-005 0.0071 -2.3249 -0.0142 -1.00865e-006 4.74281e-007 1.47718e-006 0.6113 -8.7231 -2.0637 -2.99569e-007 -1.70612e-006 1.67099e-006 -0.1927 -3.8059 -0.2383 -0.016046 0.00299916 0.000856587 -0.1091 -2.1688 -0.1362 -1.18254e-005 -4.9362e-006 9.55134e-007 -0.6151 -8.0947 -3.5641 -2.99569e-007 -1.70612e-006 1.67099e-006 -0.4882 -2.341 -0.6462 -0.0126071 0.00312237 0.00282467 -0.3575 -1.7167 -0.4742 -4.4955e-007 -8.67615e-007 2.50648e-006 -1.42 -1.8761 1.4223 -2.99569e-007 -1.70612e-006 1.67099e-006 -1.1471 -3.4929 2.6334 -2.5842e-015 1.59028e-015 7.95139e-016 -0.823 -2.3 1.6571 -7.48921e-008 -1.45893e-008 4.17748e-007 -2.2603 21.606 7.4023 -37.4109 -1.57073 11.1965 -13.5187 -1.1334 -5.0155 -129.428 -58.6447 -50.3054 0.0994 -28.0499 -0.2431 -1.82069 -34.3638 -111.748 -0.0679 -23.3996 -0.1402 -26.5729 0.675761 3.98905 -0.7932 -9.0691 2.5189 5.43823e-006 2.33857e-006 -8.79717e-007 0.8272 -3.3923 0.5977 3.84957e-006 -4.34898e-007 -2.73179e-007 0.565 -2.3158 0.4082 -1.57629e-007 -3.43837e-006 -1.04378e-005 -0.916 -9.2044 0.2193 5.43823e-006 2.33857e-006 -8.79717e-007 -0.0117 -4.1944 -0.0248 0.0129408 0.00231326 -7.19416e-005 -0.0071 -2.3249 -0.0142 1.3083e-006 -1.20814e-005 -9.80112e-006 -0.6113 -8.7231 -2.0637 5.43823e-006 2.33857e-006 -8.79717e-007 0.1927 -3.8059 -0.2383 0.016342 0.00303233 -0.000870589 0.1091 -2.1688 -0.1362 2.38296e-006 4.13967e-007 -9.09677e-007 0.6151 -8.0947 -3.564 5.43823e-006 2.33857e-006 -8.79717e-007 0.4882 -2.341 -0.6462 0.0145667 0.00367063 -0.00326545 0.3574 -1.7166 -0.4742 3.17731e-006 -1.52911e-006 -1.21285e-006 1.4199 -1.8761 1.4221 5.43823e-006 2.33857e-006 -8.79717e-007 1.1472 -3.4929 2.6336 3.84957e-006 -4.34898e-007 -2.73179e-007 0.8229 -2.3 1.6571 -1.57629e-007 -3.43837e-006 -1.04378e-005 -9.412 3.9771 -0.7758 -21.3851 -84.527 -30.453 -0.7531 -40.938 0 -175.669 32.5039 172.155 3.55271e-015 -40.1986 1.77636e-015 7.71197 46.7686 -14.6505 0 -4.4182 9.239 -4.96962e-017 2.64321e-015 -1.59028e-015 9.4119 3.9773 -0.7758 11.5579 -79.404 22.6912 0.7532 -40.9383 0 175.829 34.0251 -172.879 -8.88179e-016 -40.1986 0 13.5261 43.3196 10.5622 0 -4.4182 9.239 8.74736e-007 -1.0416e-006 2.92274e-007 
-54.0713 15.1762 20.668 -42.0002 -0.000282455 96.995 0 8.7983 -4.7612 -0.562211 8.34725 -0.27902 1.77636e-015 8.0291 0.4195 -1.10069 16.6967 -0.481994 0 9.9351 -2.2114 -1.1007 16.6968 -0.481998 0 22.3885 -0.4656 -16.4484 -42.7412 13.669 -0.0001 12.643 3.4389 2.43396e-006 9.73104 -4.88921e-006 2.2603 21.606 7.4023 -8.30715 -4.86227 16.303 13.5163 -1.1332 -5.0146 -5.6212 -59.4052 17.5117 -0.0995 -28.05 -0.2431 -90.136 -58.0197 -41.0146 0.0679 -23.3996 -0.1402 -22.3084 10.5111 43.8772 0.7932 -9.069 2.5189 1.50898e-007 -2.44823e-008 -8.35413e-007 -0.8272 -3.3923 0.5977 6.31449e-007 -7.37943e-007 6.1619e-007 -0.5649 -2.3158 0.4082 -6.31449e-007 -1.76196e-006 -6.16189e-007 0.9159 -9.2044 0.2193 1.50898e-007 -2.44823e-008 -8.35413e-007 0.0117 -4.1944 -0.0248 -0.0128214 0.00232495 8.94702e-005 0.0071 -2.3249 -0.0142 7.77278e-006 1.26711e-006 -1.38621e-006 0.6113 -8.7231 -2.0637 1.50898e-007 -2.44823e-008 -8.35413e-007 -0.1927 -3.8059 -0.2383 -0.0160408 0.00299676 0.000859764 -0.1091 -2.1688 -0.1362 3.77417e-007 2.87605e-008 -2.08852e-006 -0.6151 -8.0947 -3.5641 1.50898e-007 -2.44823e-008 -8.35413e-007 -0.4882 -2.341 -0.6462 -0.0125832 0.00312328 0.00282978 -0.3575 -1.7167 -0.4742 7.06666e-006 -1.42265e-006 -1.58472e-006 -1.42 -1.8761 1.4223 1.50898e-007 -2.44823e-008 -8.35413e-007 -1.1471 -3.4929 2.6334 6.31449e-007 -7.37943e-007 6.1619e-007 -0.823 -2.3 1.6571 -6.31449e-007 -1.76196e-006 -6.16189e-007 -2.2603 21.606 7.4023 -37.041 -1.53536 10.8518 -13.5187 -1.1334 -5.0155 -129.219 -58.7435 -50.1318 0.0994 -28.0499 -0.2431 -1.52282 -35.3468 -111.626 -0.0679 -23.3996 -0.1402 -26.9219 0.628691 3.94331 -0.7932 -9.0691 2.5189 2.38465e-006 -8.07929e-006 -9.05089e-007 0.8272 -3.3923 0.5977 6.3728e-006 1.35363e-006 9.2494e-006 0.565 -2.3158 0.4082 2.38465e-006 -1.78086e-006 -9.05089e-007 -0.916001 -9.2044 0.2193 2.38465e-006 -8.07929e-006 -9.05089e-007 -0.0117 -4.1944 -0.0248 0.0129478 0.00231348 -9.49763e-005 -0.0071 -2.3249 -0.0142 5.31654e-006 3.35157e-006 3.63508e-007 -0.6113 -8.7231 -2.0637 2.38465e-006 -8.07929e-006 -9.05089e-007 0.1927 -3.8059 -0.2383 0.0163478 0.00303168 -0.000891562 0.1091 -2.1688 -0.1362 3.1795e-006 -5.49428e-006 -1.20661e-006 0.6151 -8.0947 -3.564 2.38465e-006 -8.07929e-006 -9.05089e-007 0.4882 -2.341 -0.6462 0.0145772 0.00367585 -0.00328039 0.3574 -1.7166 -0.4742 -0 -3.18055e-015 -0 1.4199 -1.8761 1.4221 2.38465e-006 -8.07929e-006 -9.05089e-007 1.1472 -3.4929 2.6336 6.3728e-006 1.35363e-006 9.2494e-006 0.8229 -2.3 1.6571 2.38465e-006 -1.78086e-006 -9.05089e-007 -9.412 3.9771 -0.7758 -21.3851 -84.527 -30.453 -0.7531 -40.938 0 -175.669 32.5039 172.155 3.55271e-015 -40.1986 1.77636e-015 7.71197 46.7686 -14.6505 0 -4.4182 9.239 -4.96962e-017 2.64321e-015 -1.59028e-015 9.4119 3.9773 -0.7758 11.5579 -79.404 22.6912 0.7532 -40.9383 0 175.829 34.0251 -172.879 -8.88179e-016 -40.1986 0 13.5261 43.3196 10.5622 0 -4.4182 9.239 8.74736e-007 -1.0416e-006 2.92274e-007 
-54.0713 15.1762 20.668 -42.0002 -0.000284314 96.995 1.77636e-015 8.7983 -4.7612 -0.560977 8.27646 -0.275176 1.77636e-015 8.0291 0.4195 -1.09883 16.5549 -0.474975 0 9.9351 -2.2114 -1.0988 16.5552 -0.474993 3.55271e-015 22.3885 -0.4656 -16.299 -42.1862 13.8901 -0.0001 12.643 3.4389 -5.17072e-006 10.0867 -1.54282e-005 2.2603 21.606 7.4023 -8.24608 -4.8099 16.0117 13.5163 -1.1332 -5.0146 -5.62116 -59.4052 17.5117 -0.0995 -28.05 -0.2431 -89.0053 -58.2078 -40.0168 0.0679 -23.3996 -0.1402 -22.5419 10.508 43.6363 0.7932 -9.06901 2.5189 3.77691e-015 2.70347e-014 7.95139e-016 -0.8272 -3.3923 0.5977 -2.281e-007 -8.61667e-007 1.25297e-006 -0.5649 -2.3158 0.4082 -3.04133e-007 -8.86588e-007 1.67063e-006 0.9159 -9.2044 0.2193 3.77691e-015 2.70347e-014 7.95139e-016 0.0117 -4.1944 -0.0248 -0.0128229 0.00232375 8.40606e-005 0.0071 -2.3249 -0.0142 -1.25453e-006 -1.25342e-006 -1.24181e-006 0.6113 -8.7231 -2.0637 3.77691e-015 2.70347e-014 7.95139e-016 -0.1927 -3.8059 -0.2383 -0.0160579 0.00299506 0.000856187 -0.1091 -2.1688 -0.1362 -3.0427e-007 -8.86586e-007 1.67062e-006 -0.6151 -8.0947 -3.5641 3.77691e-015 2.70347e-014 7.95139e-016 -0.4882 -2.341 -0.6462 -0.0125956 0.00311706 0.00282751 -0.3575 -1.7167 -0.4742 1.03389e-005 8.32937e-009 -9.04313e-007 -1.42 -1.8761 1.4223 3.77691e-015 2.70347e-014 7.95139e-016 -1.1471 -3.4929 2.6334 -2.281e-007 -8.61667e-007 1.25297e-006 -0.823 -2.3 1.6571 -3.04133e-007 -8.86588e-007 1.67063e-006 -2.2603 21.606 7.4023 -36.6709 -1.50217 10.507 -13.5187 -1.1334 -5.0155 -129.01 -58.8419 -49.9575 0.0994 -28.0499 -0.2431 -1.21837 -36.3292 -111.496 -0.0679 -23.3996 -0.1402 -27.271 0.581911 3.89725 -0.7932 -9.06911 2.5189 1.59028e-015 -1.19271e-015 -0 0.8272 -3.3923 0.5977 1.59028e-015 -1.98785e-015 -3.18055e-015 0.565 -2.3158 0.4082 3.18055e-015 1.59028e-015 -0 -0.916 -9.20441 0.2193 1.59028e-015 -1.19271e-015 -0 -0.0117 -4.1944 -0.0248 0.0129413 0.00231056 -7.96876e-005 -0.0071 -2.3249 -0.0142 -1.59028e-015 0 3.18055e-015 -0.6113 -8.7231 -2.0637 1.59028e-015 -1.19271e-015 -0 0.1927 -3.8059 -0.2383 0.016323 0.00304223 -0.000862253 0.1091 -2.1688 -0.1362 -0 0 3.18055e-015 0.6151 -8.0947 -3.564 1.59028e-015 -1.19271e-015 -0 0.4882 -2.341 -0.6462 0.0146005 0.00368641 -0.00325222 0.3574 -1.7166 -0.4742 -3.18055e-015 5.96354e-015 -3.18055e-015 1.4199 -1.8761 1.4221 1.59028e-015 -1.19271e-015 -0 1.1472 -3.4929 2.6336 1.59028e-015 -1.98785e-015 -3.18055e-015 0.8229 -2.3 1.6571 3.18055e-015 1.59028e-015 -0 -9.412 3.9771 -0.7758 -21.3851 -84.527 -30.4532 -0.7531 -40.938 0 -175.669 32.5038 172.155 -3.55271e-015 -40.1986 0 7.71192 46.7684 -14.6505 3.55271e-015 -4.4182 9.239 1.50051e-006 7.29029e-006 -8.06646e-007 9.4119 3.9773 -0.7758 11.5582 -79.4042 22.6915 0.7532 -40.9383 0 175.829 34.0249 -172.879 -8.88178e-016 -40.1986 -3.55271e-015 13.5261 43.3195 10.5622 0 -4.4182 9.239 -4.22936e-007 -6.94559e-006 7.87412e-006 
